<?xml version="1.0" encoding="UTF-8" standalone="no"?>
<!-- Created with Inkscape (http://www.inkscape.org/) -->

<svg
   xmlns:dc="http://purl.org/dc/elements/1.1/"
   xmlns:cc="http://creativecommons.org/ns#"
   xmlns:rdf="http://www.w3.org/1999/02/22-rdf-syntax-ns#"
   xmlns:svg="http://www.w3.org/2000/svg"
   xmlns="http://www.w3.org/2000/svg"
   version="1.1"
   width="100%"
   height="100%"
   viewBox="0 0 427.32963 106.44444"
   id="Layer_1"
   xml:space="preserve"><metadata
     id="metadata31"><rdf:RDF><cc:Work
         rdf:about=""><dc:format>image/svg+xml</dc:format><dc:type
           rdf:resource="http://purl.org/dc/dcmitype/StillImage" /><dc:title></dc:title></cc:Work></rdf:RDF></metadata><defs
     id="defs29" /><style
     type="text/css"
     id="style3" /><g
     transform="translate(-91.97037,-342.15556)"
     id="g5"><path
       d="m 216.3,380.8 c 9.2,0.9 11.3,8.2 11.3,13.9 0,4.5 -1.1,12.4 -11.3,13.9 v -27.8 z m -15.9,44.9 H 213 c 18.6,0 30.9,-13.6 30.9,-30.9 0,-14.4 -9.4,-30.2 -29,-30.2 h -14.5 v 61.1 z"
       id="path7" /><path
       d="m 248.8,381.8 h 14.7 v 43.9 h -14.7 v -43.9 z m 0,-17.1 h 14.7 v 13.2 h -14.7 v -13.2 z"
       id="path9" /><polygon
       points="323.1,364.7 331.5,425.7 315.2,425.7 311.7,400.6 311.5,400.6 299.3,426.1 287.1,400.6 286.9,400.6 283.3,425.7 267.1,425.7 275.8,364.7 288.5,364.7 299.3,388.4 310.4,364.7 "
       id="polygon11" /><path
       d="m 351.1,405.9 c 2.5,0 4.5,2 4.5,4.5 0,2.5 -2,4.5 -4.5,4.5 -2.5,0 -4.5,-2 -4.5,-4.5 0,-2.5 2,-4.5 4.5,-4.5 m -14.4,-13.1 c 2.7,-0.4 4.8,-1 9.4,-1 6.5,0 8,1.4 8,5.8 -1.4,-0.7 -3.8,-1.2 -6.4,-1.2 -9.8,0 -15.2,7.4 -15.2,14.9 0,9.9 6.4,15.4 13.6,15.4 5.9,0 9,-3.3 9.5,-4.2 h 0.2 v 3.2 h 12.7 v -30.1 c 0,-11.7 -6.4,-13.8 -18,-13.8 -4,0 -8.1,0.3 -12,0.6 l -1.8,10.4 z"
       id="path13" /><path
       d="m 375,381.8 h 14.7 v 4.4 h 0.2 c 1.9,-3.4 4.3,-4.4 9.5,-4.4 v 14.7 c -8.2,0 -9.7,2.9 -9.7,7.9 v 21.3 H 375 v -43.9 z"
       id="path15" /><polygon
       points="434.2,425.7 401.2,425.7 413.4,396.6 401.5,396.6 401.5,381.8 435.8,381.8 423.1,411 437.1,411 "
       id="polygon17" /><path
       d="m 440.7,381.8 h 14.7 v 43.9 h -14.7 v -43.9 z m 0,-17.1 h 14.7 v 13.2 h -14.7 v -13.2 z"
       id="path19" /><path
       d="m 474.4,403.8 c 0,-4.6 3.6,-8.2 8.2,-8.2 4.6,0 8.2,3.6 8.2,8.2 0,4.6 -3.6,8.2 -8.2,8.2 -4.6,0 -8.2,-3.7 -8.2,-8.2 m -14.8,0 c 0,12.7 10.3,23 23,23 12.7,0 23,-10.3 23,-23 0,-12.7 -10.3,-23 -23,-23 -12.7,0 -23,10.2 -23,23"
       id="path21" /><path
       d="m 508.8,370.7 h 1.2 c 0.4,0 1.5,0 1.5,1 0,0.9 -0.5,1.1 -1,1.1 h -1.7 v -2.1 z m -2.2,7.6 h 2.2 v -3.7 h 0.6 l 1.9,3.7 h 2.4 l -2.1,-3.9 c 1.1,-0.1 2.3,-0.7 2.3,-2.6 0,-2.3 -1.4,-2.9 -3.8,-2.9 h -3.4 v 9.4 z m -5.9,-4.8 c 0,5.2 4.2,9.3 9.3,9.3 5.2,0 9.3,-4.2 9.3,-9.3 0,-5.2 -4.2,-9.3 -9.3,-9.3 -5.1,0 -9.3,4.2 -9.3,9.3 m 3.1,0 c 0,-3.6 2.8,-6.4 6.3,-6.4 3.5,0 6.3,2.8 6.3,6.4 0,3.6 -2.8,6.4 -6.3,6.4 -3.5,0.1 -6.3,-2.7 -6.3,-6.4"
       id="path23" /><path
       d="m 186.8,400.3 c 1.2,0.9 2.2,0.1 2.2,0.1 1.2,-0.4 2.3,-3.2 2.5,-3.6 0.2,-0.3 1.2,0 1.2,0 0.6,0.1 0.9,1.6 0.9,1.6 1.3,-2.4 1,-2.5 0.2,-3.8 -0.7,-1.4 -2.9,-0.9 -2.9,-0.9 -1,0.5 -1.1,0 -1.1,0 -0.1,0.1 -1.3,-1.2 -1.9,-1.8 -0.6,-0.6 -1.3,-0.2 -1.8,0 -0.5,0.2 -1.1,0.8 -2,1.3 -1,0.5 -1.7,0 -1.7,0 0,0 0.4,0.2 -1.1,-1.1 -1.4,-1.3 -1.8,-0.7 -2.3,-0.6 -0.5,0.1 -1.9,0.9 -1.9,0.9 -0.7,0.6 -2.8,1 -3.2,-0.6 -0.7,-3.2 4.9,-2.6 4.9,-2.6 2.7,0.2 2.7,-2 2.7,-2 0,-7.1 1.1,-6.2 2,-7 0.8,-0.8 1.8,0 1.8,0 0.2,0.3 0.4,0.8 2.1,0.8 1.7,0 2.6,-2 2.6,-2 1.2,-5.2 1.8,-4.9 1.8,-4.9 0.7,-0.9 1.7,-0.3 1.7,-0.3 0.2,-0.1 0.9,0.5 0.9,0.5 -0.1,-7 -5,-2.1 -5,-2.1 l -1.5,1.5 c -1.5,1.6 -3.1,0.2 -3.1,0.2 l -2.3,-1.7 c -2.3,-1.8 -4.9,0.1 -4.9,0.1 -0.8,0.5 -5.6,7 -7.3,4.5 -1.7,-2.5 1.8,-1.4 1.9,-4.3 0.1,-2.2 -0.5,-2.3 0,-3.4 0.5,-1.1 2.5,-0.3 3.6,-1.4 1,-1.1 0.6,-2.5 0,-3.8 -0.6,-1.3 0.3,-2.4 0.3,-2.4 0.6,-0.2 2,-1.1 2,-1.1 3.3,-3 0,-4.3 0,-4.3 -0.1,2 -1.3,2.6 -1.3,2.6 -1.7,1.3 -3.5,0 -3.5,0 -1.8,-0.7 -2,0 -2,0 -1,0.7 -0.4,2.1 -0.4,2.1 2,5 -2.7,3.4 -2.7,3.4 -1.7,-1.1 -3.4,-0.7 -3.4,-0.7 -1.8,0.8 -0.8,3.1 -0.8,3.1 0,0 0.3,0.8 0.5,1.2 0.2,0.4 0,0.9 0,0.9 -2.1,4 -4.1,0 -4.1,0 -1.4,-3.4 3.1,-5.9 3.1,-5.9 6.5,-5.9 0.7,-8.7 0.7,-8.7 0,0 0,0 -1.6,-1.3 -1.6,-1.3 0,-2.6 0,-2.6 4.9,-6.1 0,-8 0,-8 -0.4,-0.1 -1.1,0 -1.1,0 0,0 1.3,1.2 0.6,2.9 -0.7,1.7 -2.7,1.7 -2.7,1.7 -6.7,1.6 -4.3,4 -3.6,5.2 0.7,1.2 1.9,2.5 0.8,4 -1.1,1.5 -3.2,1.1 -3.2,1.1 0,0 -1,-0.6 -3,-0.7 -2,-0.1 -2.7,1.4 -2.7,1.4 0,0 -0.5,2 -1.5,2.9 -1,0.9 -1.4,0.2 -1.5,-0.5 -0.1,-0.7 0.8,-1.6 0.8,-1.6 2.3,-1.4 2.4,-4.3 -1.2,-5.3 -3.6,-1 -1.7,-2.7 -1.7,-2.7 0,0 1.7,-2 0.2,-3.8 -1.4,-1.7 -3.4,0.2 -3.4,0.2 0.5,-0.5 1.5,0.7 1.5,0.7 0,0 1.5,1.3 -2.3,3.6 -3.8,2.4 -0.9,3.6 -0.9,3.6 0,0 2.8,0.9 1.7,2.7 -1.1,1.8 -2.3,2.1 -6.1,1.6 -3.8,-0.6 -4.3,-2.1 -3.8,-4.2 0.5,-2.1 -0.6,-3.9 -0.6,-3.9 -0.9,-2.4 -6.4,-0.4 -7.5,-2.3 -1.1,-1.9 0.9,-1.3 0.9,-1.3 -0.6,-1.8 -2.8,-0.7 -2.8,-0.7 -2,2.6 0.2,3.6 1.9,4.9 1.7,1.3 0.6,3.3 0.6,3.3 l -2.5,4.7 c -1.6,5.5 3.9,5.6 4.3,5.7 0.4,0.1 5.1,1.6 4.8,3.8 -0.3,2.2 -2.2,1.2 -2.2,1.2 -0.2,-1.3 -2.3,-0.4 -2.3,-0.4 -4.5,3.1 -4.5,-0.3 -4,-2.3 0.5,-2 -1.8,-1.6 -1.8,-1.6 0,0 -5.5,3.4 -5.5,-1.7 0,-5.1 -4.4,-2.2 -4.4,-2.2 0,0 3.5,0.9 1.3,4.5 -2.1,3.7 0.5,4.2 0.5,4.4 0,0.2 3.5,0.9 3.5,0.9 1.9,1.8 0.8,2.9 0.8,2.9 0,0 -1.6,1 0.4,3.6 2,2.6 0.3,4.3 -1.6,3.4 -2,-0.9 -2.7,-5.6 -2.6,-6.8 0.1,-1.2 -2.5,-3.1 -5.2,0 -2.7,3.1 -4.5,1.5 -4.5,1.5 0,0 -1.1,-2.8 -4.4,-2.4 -3.2,0.4 -2.6,3.1 -2.6,3.1 3.7,-2 3.8,1.6 3.8,1.6 0,0 -0.4,5.5 4.9,5 5.3,-0.6 4.2,2.8 4.2,2.8 -1.9,4.6 2.9,3.9 4.5,4.9 1.5,0.9 0.8,2 0,2.7 -1.5,0.6 -1.4,-0.4 -2.8,-0.1 -1.3,0.3 -2.3,2.5 -2.8,1.7 -1.3,-1.8 -2.9,-2.5 -2.9,-2.5 -2.4,-0.3 -3.2,1.9 -3.2,1.9 -0.2,1.7 -2.2,0.9 -2.2,0.9 -0.4,-0.4 -1.9,-1.2 -1.9,-1.2 -4.2,-1.5 -3.6,2.1 -3.6,2.1 1.7,-0.9 2.9,-0.1 2.9,-0.1 2,0.9 1.8,3 1.8,3 0.4,2 1,1.7 1,1.7 1.1,0.5 2,-0.7 2,-0.7 3.2,-4.3 4.2,0.7 4.2,0.7 0.5,1.6 1.3,2.7 2.3,2.8 1.6,0.2 5.9,-1.9 7.2,-1 1.3,1 0.7,2.2 0.7,2.2 -0.8,1.6 -1.9,1.6 -3.4,0.7 -1.6,-0.9 -3.1,-0.8 -4.3,0.2 -1.2,1 -1.2,3.9 -1.2,3.9 0,0 -0.1,3.8 -1.1,5.1 -1,1.4 -3,0.8 -3,0.8 0,0 -2.2,0 -3.4,1.3 -1.2,1.3 -0.7,3.2 -0.5,3.6 0.1,0.3 0.5,1.1 0.5,1.1 0.8,2 3.6,2.2 3,1.9 -0.7,-0.3 -0.9,-0.8 -0.9,-0.8 -0.7,-1.5 0.4,-2.6 0.4,-2.6 0.7,-1.2 3.7,-0.5 3.7,-0.5 0,0 2.6,1.9 4.7,1.2 2.1,-0.7 2.7,-3 2.6,-3.3 -0.1,-0.4 0.3,-1.7 0.3,-1.7 0,0 1.6,-2.6 2.9,-2.8 1.3,-0.2 1.9,0.3 1.9,0.3 0,0 2.2,1.7 -0.9,3.6 -3.1,1.9 -1.4,3.6 -1.4,3.6 0,0 0.7,0.2 1,2.4 0.3,2.3 -1.3,1.5 -1.3,1.5 0,0 -1.1,-1 -1.7,0 -0.6,1 0.3,2.6 0.3,2.6 0,0 1.4,2.3 0.2,3.3 -1.2,1 -2.3,-0.1 -2.3,-0.1 0,0 -0.4,-0.4 0.9,1.6 1.3,2 2.5,1.1 2.5,1.1 0,0 1.3,-0.8 1.6,-2.2 0.4,-1.4 1.3,-1.1 1.9,-0.9 0.6,0.2 1.7,0.3 1.7,0.3 1.8,-0.2 1.4,-2.7 1.1,-4.2 -0.3,-1.5 0.3,-2.3 0.3,-2.3 0.3,-1.1 2.8,-0.3 2.8,-0.3 0,0 2.3,0.4 2.7,-1.7 0.4,-2.2 2.3,-1.3 2.5,0.1 0.3,1.5 -0.7,2 -0.7,2 0,0 -0.6,0.6 -3.3,2.7 -2.8,2.1 -0.7,5.8 -0.7,5.8 0,0 1.5,1.9 2.7,3.2 1.2,1.3 0.4,2 0.4,2 l -1.6,1.7 c -3.2,2.5 -1.2,4.6 0.2,5.6 1.4,1 2.9,0.5 2.9,0.5 -0.6,0 -1.3,-1 -1.3,-1 0,0 -0.9,-1.8 -0.1,-2.8 0.8,-1 2.1,-1.1 2.1,-1.1 2.1,0.3 4.5,-0.4 4.5,-0.4 2.7,-0.8 1.2,-3.2 1.2,-3.2 0,0 -0.7,-1.2 -1.8,-3 -1.2,-1.8 -0.3,-3 -0.3,-3 0,0 1.5,-2.5 3.6,-1.3 2.2,1.2 0.9,3 0.9,3 0,0 -1,1.1 -0.4,3 0.6,1.9 2.6,2.6 2.6,2.6 0,0 2,0.3 0.3,1.9 -1.7,1.6 -0.2,2.9 -0.2,2.9 l 2.6,1.5 c 3.2,2.3 0.3,2.8 0.3,2.8 0.4,0.7 1.7,0.7 1.7,0.7 0,0 2.8,-0.4 1.5,-3 -1.2,-2.6 0,-3.5 0,-3.5 0,0 -0.4,0.2 1.9,-1.7 2.3,-1.9 0.8,-3.6 0.8,-3.6 0,0 -1,-0.9 -2,-1.8 -1,-0.9 -0.4,-1.9 -0.4,-1.9 0,0 0.2,-0.6 1.4,-1.8 1.2,-1.2 0,-2 0,-2 -1.3,-1.2 -0.4,-2.2 -0.4,-2.2 1.3,-1.1 2.4,0 2.4,0 1.3,0.4 0.2,2.9 0.2,2.9 0,0 -0.4,1.1 0.2,2.6 0.6,1.6 2.5,1.1 2.5,1.1 2.9,-1 3.8,0.1 3.8,0.1 0,0 1.3,1.9 0.6,2.5 -0.7,0.7 -0.8,2.2 -0.5,3.1 0.3,0.9 1.5,1.5 1.5,1.5 0,0 2.2,0.7 4.5,1.2 2.2,0.4 3.1,2.1 3.1,2.1 0.5,0.3 0.4,1 0.4,1 l -0.4,0.8 c 0.5,0 1,-0.2 1,-0.2 0,0 0.3,0.1 1.2,-1 0.9,-1 0.1,-3 0.1,-3 0,0 -2.5,-2.2 -3.5,-2.9 -0.9,-0.7 -0.4,-2.2 -0.4,-2.2 l 1.5,-2.3 1.5,-2.1 c 0,0 0.4,-0.7 0.5,-1.9 0.1,-1.2 -0.6,-1.5 -0.6,-1.5 -2.3,-0.5 -3.2,-1.7 -3.2,-1.7 0,0 -2.5,-2 -1.6,-3.6 0.8,-1.5 1.7,-0.1 1.7,-0.1 0,0 0.8,1.3 1.5,2.4 0.7,1.1 2.8,0.9 4.2,0.8 1.4,-0.1 1.3,1.6 1.3,1.6 0.7,2.6 1.4,2.5 1.4,2.5 1.9,0.7 2.8,-0.1 4.1,-0.8 1.2,-0.6 2,0 2,0 0.9,1 0,1.8 0,1.8 l 1.1,-0.5 c 0,0 0,0 0.8,-0.6 0.8,-0.6 0.6,-1.5 0.6,-2 -0.1,-0.5 -0.8,-0.9 -0.8,-0.9 l -2.4,-1.5 c 0,0 -1.3,-0.6 -0.4,-2.3 0.9,-1.8 0.4,-2.7 0.4,-2.7 0,0 -0.3,-1.3 -2.2,-1.1 -1.9,0.3 -1.8,-0.3 -1.8,-0.3 -0.8,-0.3 -0.2,-1.7 0.2,-2.7 0.4,-1 0.3,-1.6 -0.3,-2.2 -0.6,-0.6 -1.8,-0.8 -1.8,-0.8 0,0 -1.1,0.1 -1.1,-1.1 0,-1.1 1.2,-1 1.2,-1 0,0 2,0.3 2.6,2.3 0.6,1.9 2.4,3.7 2.4,3.7 1.5,1.5 2.8,0.1 3.1,0 0.2,-0.1 2.2,-1.8 3.6,-3.2 1.3,-1.4 2.2,-0.7 2.3,-0.7 0.2,0 1.7,0.8 2.3,1.7 0.5,0.9 2.6,1.2 2.6,1.2 0,0 1.2,0.3 2.5,-1 1.2,-1.4 0.3,-4.1 0.3,-4.1 0,0 0.3,1.8 -1.2,1.7 -1.6,-0.1 -2.5,-2.1 -2.6,-2 -0.1,0.1 -1,-2.8 -1.3,-4.5 -0.3,-1.7 -0.8,-1.9 -1.6,-2.4 -0.7,-0.5 -1.5,-0.1 -1.5,0 0,0 -1.3,0.8 -2.4,1.5 -1.1,0.7 -3.1,0.4 -3.6,0.2 -0.5,-0.3 -1.5,-1 -1.1,-2.6 0.4,-1.6 2.1,-1.2 2.1,-1.2 1.6,1.1 2.8,0.2 2.8,0.2 0,0 1.7,-1.9 2.3,-3 0.6,-1.1 1.2,-0.6 1.2,-0.6 0,0 -0.3,0.2 0.9,1 m -42.7,22.2 c -7,0 -13.3,-2.9 -17.8,-7.6 -4.6,-4.6 -7.4,-11.1 -7.4,-18.2 0,-14.2 11.2,-25.7 25.1,-25.7 7,0 13.3,2.9 17.8,7.6 4.6,4.6 7.4,11.1 7.4,18.2 0.1,14.2 -11.2,25.7 -25.1,25.7"
       id="path25"
       style="fill:#ed1b2e" /></g></svg>